{
  "accessors": [
    {
      "bufferView": 2,
      "componentType": 5126,
      "count": 1182,
      "max": [
        8.173572540283203,
        2.42533540725708,
        2.42533540725708
      ],
      "min": [
        -2.961467981338501,
        -2.42533540725708,
        -2.42533540725708
      ],
      "type": "VEC3"
    },
    {
      "bufferView": 2,
      "byteOffset": 14184,
      "componentType": 5126,
      "count": 1182,
      "max": [
        1.0,
        1.0,
        1.0
      ],
      "min": [
        -0.9821346402168274,
        -1.0,
        -1.0
      ],
      "type": "VEC3"
    },
    {
      "bufferView": 1,
      "componentType": 5126,
      "count": 1182,
      "max": [
        0.99983811378479,
        0.9682433605194092
      ],
      "min": [
        0.0006662890082225204,
        0.0010586729040369391
      ],
      "type": "VEC2"
    },
    {
      "bufferView": 0,
      "componentType": 5125,
      "count": 4368,
      "type": "SCALAR"
    },
    {
      "bufferView": 2,
      "byteOffset": 28368,
      "componentType": 5126,
      "count": 414,
      "max": [
        0.0345473550260067,
        2.1573123931884766,
        2.1573123931884766
      ],
      "min": [
        -14.88007926940918,
        -2.1573123931884766,
        -2.1573123931884766
      ],
      "type": "VEC3"
    },
    {
      "bufferView": 2,
      "byteOffset": 33336,
      "componentType": 5126,
      "count": 414,
      "max": [
        1.0,
        0.9999957084655762,
        0.9999957084655762
      ],
      "min": [
        -0.6784549951553345,
        -0.9999957084655762,
        -0.9999957084655762
      ],
      "type": "VEC3"
    },
    {
      "bufferView": 1,
      "byteOffset": 9456,
      "componentType": 5126,
      "count": 414,
      "max": [
        0.998877227306366,
        0.9950495362281799
      ],
      "min": [
        0.0011960958363488317,
        0.0013120101066306233
      ],
      "type": "VEC2"
    },
    {
      "bufferView": 1,
      "byteOffset": 12768,
      "componentType": 5126,
      "count": 414,
      "max": [
        0.998877227306366,
        0.9950495362281799
      ],
      "min": [
        0.0011960958363488317,
        0.0013120101066306233
      ],
      "type": "VEC2"
    },
    {
      "bufferView": 0,
      "byteOffset": 17472,
      "componentType": 5125,
      "count": 1680,
      "type": "SCALAR"
    },
    {
      "bufferView": 2,
      "byteOffset": 38304,
      "componentType": 5126,
      "count": 701,
      "max": [
        -10.33517074584961,
        6.601738452911377,
        1.0695579051971436
      ],
      "min": [
        -13.972820281982422,
        4.773829936981201,
        -0.7583496570587158
      ],
      "type": "VEC3"
    },
    {
      "bufferView": 2,
      "byteOffset": 46716,
      "componentType": 5126,
      "count": 701,
      "max": [
        0.7818188071250916,
        1.0,
        1.0
      ],
      "min": [
        -1.0,
        -1.0,
        -1.0
      ],
      "type": "VEC3"
    },
    {
      "bufferView": 1,
      "byteOffset": 16080,
      "componentType": 5126,
      "count": 701,
      "max": [
        0.9989548325538635,
        0.9989478588104248
      ],
      "min": [
        0.0009207330294884741,
        0.0013804130721837282
      ],
      "type": "VEC2"
    },
    {
      "bufferView": 1,
      "byteOffset": 21688,
      "componentType": 5126,
      "count": 701,
      "max": [
        0.9989548325538635,
        0.9989478588104248
      ],
      "min": [
        0.0009207330294884741,
        0.0013804130721837282
      ],
      "type": "VEC2"
    },
    {
      "bufferView": 1,
      "byteOffset": 27296,
      "componentType": 5126,
      "count": 701,
      "max": [
        0.9989548325538635,
        0.9989478588104248
      ],
      "min": [
        0.0009207330294884741,
        0.0013804130721837282
      ],
      "type": "VEC2"
    },
    {
      "bufferView": 0,
      "byteOffset": 24192,
      "componentType": 5125,
      "count": 3120,
      "type": "SCALAR"
    },
    {
      "bufferView": 2,
      "byteOffset": 55128,
      "componentType": 5126,
      "count": 48,
      "max": [
        1.6007230281829834,
        -2.2076852321624756,
        1.5848015546798706
      ],
      "min": [
        -2.4928789138793945,
        -3.6611790657043457,
        -5.617377758026123
      ],
      "type": "VEC3"
    },
    {
      "bufferView": 2,
      "byteOffset": 55704,
      "componentType": 5126,
      "count": 48,
      "max": [
        0.9237842559814453,
        0.9972530603408813,
        0.01120046153664589
      ],
      "min": [
        -0.9014905691146851,
        0.38286277651786804,
        -0.01242106780409813
      ],
      "type": "VEC3"
    },
    {
      "bufferView": 1,
      "byteOffset": 32904,
      "componentType": 5126,
      "count": 48,
      "max": [
        0.5521690249443054,
        0.9950494766235352
      ],
      "min": [
        0.0027471096254885197,
        0.004950494971126318
      ],
      "type": "VEC2"
    },
    {
      "bufferView": 1,
      "byteOffset": 33288,
      "componentType": 5126,
      "count": 48,
      "max": [
        0.5521690249443054,
        0.9950494766235352
      ],
      "min": [
        0.0027471096254885197,
        0.004950494971126318
      ],
      "type": "VEC2"
    },
    {
      "bufferView": 1,
      "byteOffset": 33672,
      "componentType": 5126,
      "count": 48,
      "max": [
        0.5521690249443054,
        0.9950494766235352
      ],
      "min": [
        0.0027471096254885197,
        0.004950494971126318
      ],
      "type": "VEC2"
    },
    {
      "bufferView": 0,
      "byteOffset": 36672,
      "componentType": 5125,
      "count": 180,
      "type": "SCALAR"
    },
    {
      "bufferView": 2,
      "byteOffset": 56280,
      "componentType": 5126,
      "count": 415,
      "max": [
        2.0144472122192383,
        2.35282039642334,
        2.3528316020965576
      ],
      "min": [
        -0.80732262134552,
        -2.3528246879577637,
        -2.352814197540283
      ],
      "type": "VEC3"
    },
    {
      "bufferView": 2,
      "byteOffset": 61260,
      "componentType": 5126,
      "count": 415,
      "max": [
        1.0,
        1.0,
        1.0
      ],
      "min": [
        -1.0,
        -1.0,
        -1.0
      ],
      "type": "VEC3"
    },
    {
      "bufferView": 1,
      "byteOffset": 34056,
      "componentType": 5126,
      "count": 415,
      "max": [
        0.938970685005188,
        0.9638742208480835
      ],
      "min": [
        0.0010644211433827877,
        0.0014242014149203897
      ],
      "type": "VEC2"
    },
    {
      "bufferView": 0,
      "byteOffset": 37392,
      "componentType": 5125,
      "count": 1536,
      "type": "SCALAR"
    }
  ],
  "asset": {
    "extras": {
      "author": "pavito (https://sketchfab.com/pavito)",
      "license": "CC-BY-4.0 (http://creativecommons.org/licenses/by/4.0/)",
      "source": "https://sketchfab.com/3d-models/glass-of-wine-da0535a0e553491c8a8b7f07eba6b45e",
      "title": "Glass of wine"
    },
    "generator": "Sketchfab-12.67.0",
    "version": "2.0"
  },
  "bufferViews": [
    {
      "buffer": 0,
      "byteLength": 43536,
      "name": "floatBufferViews",
      "target": 34963
    },
    {
      "buffer": 0,
      "byteLength": 37376,
      "byteOffset": 43536,
      "byteStride": 8,
      "name": "floatBufferViews",
      "target": 34962
    },
    {
      "buffer": 0,
      "byteLength": 66240,
      "byteOffset": 80912,
      "byteStride": 12,
      "name": "floatBufferViews",
      "target": 34962
    }
  ],
  "buffers": [
    {
      "byteLength": 147152,
      "uri": "scene.bin"
    }
  ],
  "extensionsUsed": [
    "KHR_materials_clearcoat",
    "KHR_materials_transmission"
  ],
  "images": [
    {
      "uri": "textures/Material.001_metallicRoughness.png"
    },
    {
      "uri": "textures/Material.003_metallicRoughness.png"
    },
    {
      "uri": "textures/Material_baseColor.png"
    }
  ],
  "materials": [
    {
      "alphaMode": "BLEND",
      "extensions": {
        "KHR_materials_clearcoat": {
          "clearcoatFactor": 1.0,
          "clearcoatRoughnessFactor": 0.09899281931549411
        },
        "KHR_materials_transmission": {
          "transmissionFactor": 1.0
        }
      },
      "name": "Material.001",
      "pbrMetallicRoughness": {
        "baseColorFactor": [
          1.0,
          1.0,
          1.0,
          0.25
        ],
        "metallicRoughnessTexture": {
          "index": 0
        }
      }
    },
    {
      "doubleSided": true,
      "name": "Material.003",
      "pbrMetallicRoughness": {
        "baseColorFactor": [
          0.00728508,
          0.00118297,
          0.0175408,
          1.0
        ],
        "metallicFactor": 0.518182,
        "metallicRoughnessTexture": {
          "index": 1
        },
        "roughnessFactor": 0.4516428628
      }
    },
    {
      "doubleSided": true,
      "name": "Material.004",
      "pbrMetallicRoughness": {
        "baseColorFactor": [
          0.0,
          0.223228,
          0.0975874,
          1.0
        ],
        "metallicFactor": 0.0,
        "metallicRoughnessTexture": {
          "index": 0
        }
      }
    },
    {
      "doubleSided": true,
      "name": "Material",
      "pbrMetallicRoughness": {
        "baseColorTexture": {
          "index": 2
        },
        "metallicFactor": 0.0,
        "metallicRoughnessTexture": {
          "index": 0
        }
      }
    },
    {
      "doubleSided": true,
      "name": "Material.007",
      "pbrMetallicRoughness": {
        "baseColorFactor": [
          0.0631596481,
          0.0012410935,
          0.0046452993,
          1.0
        ],
        "metallicFactor": 0.0,
        "roughnessFactor": 0.1537143778
      }
    }
  ],
  "meshes": [
    {
      "name": "Object_0",
      "primitives": [
        {
          "attributes": {
            "NORMAL": 1,
            "POSITION": 0,
            "TEXCOORD_0": 2
          },
          "indices": 3,
          "material": 0,
          "mode": 4
        }
      ]
    },
    {
      "name": "Object_1",
      "primitives": [
        {
          "attributes": {
            "NORMAL": 5,
            "POSITION": 4,
            "TEXCOORD_0": 6,
            "TEXCOORD_1": 7
          },
          "indices": 8,
          "material": 1,
          "mode": 4
        }
      ]
    },
    {
      "name": "Object_2",
      "primitives": [
        {
          "attributes": {
            "NORMAL": 10,
            "POSITION": 9,
            "TEXCOORD_0": 11,
            "TEXCOORD_1": 12,
            "TEXCOORD_2": 13
          },
          "indices": 14,
          "material": 2,
          "mode": 4
        }
      ]
    },
    {
      "name": "Object_3",
      "primitives": [
        {
          "attributes": {
            "NORMAL": 16,
            "POSITION": 15,
            "TEXCOORD_0": 17,
            "TEXCOORD_1": 18,
            "TEXCOORD_2": 19
          },
          "indices": 20,
          "material": 3,
          "mode": 4
        }
      ]
    },
    {
      "name": "Object_4",
      "primitives": [
        {
          "attributes": {
            "NORMAL": 22,
            "POSITION": 21,
            "TEXCOORD_0": 23
          },
          "indices": 24,
          "material": 4,
          "mode": 4
        }
      ]
    }
  ],
  "nodes": [
    {
      "children": [
        1
      ],
      "matrix": [
        1.0,
        0.0,
        0.0,
        0.0,
        0.0,
        2.220446049250313e-16,
        -1.0,
        0.0,
        0.0,
        1.0,
        2.220446049250313e-16,
        0.0,
        0.0,
        0.0,
        0.0,
        1.0
      ],
      "name": "Sketchfab_model"
    },
    {
      "children": [
        2
      ],
      "name": "root"
    },
    {
      "children": [
        3,
        5,
        9,
        11
      ],
      "matrix": [
        1.0,
        0.0,
        0.0,
        0.0,
        0.0,
        2.220446049250313e-16,
        1.0,
        0.0,
        0.0,
        -1.0,
        2.220446049250313e-16,
        0.0,
        0.0,
        0.0,
        0.0,
        1.0
      ],
      "name": "GLTF_SceneRootNode"
    },
    {
      "children": [
        4
      ],
      "matrix": [
        8.429369480200677e-08,
        -0.9999999999999966,
        0.0,
        0.0,
        0.9999999999999966,
        8.429369480200677e-08,
        0.0,
        0.0,
        0.0,
        0.0,
        1.0,
        0.0,
        -8.038424491882324,
        8.278030395507813,
        0.0,
        1.0
      ],
      "name": "Glass_0"
    },
    {
      "mesh": 0,
      "name": "Object_4"
    },
    {
      "children": [
        6,
        7
      ],
      "matrix": [
        8.429369480200677e-08,
        -0.9999999999999966,
        0.0,
        0.0,
        0.9999999999999966,
        8.429369480200677e-08,
        0.0,
        0.0,
        0.0,
        0.0,
        1.0,
        0.0,
        0.06057172268629074,
        0.006923932582139969,
        0.0,
        1.0
      ],
      "name": "Bottle of Wine_2"
    },
    {
      "mesh": 1,
      "name": "Object_6"
    },
    {
      "children": [
        8
      ],
      "matrix": [
        1.0,
        0.0,
        0.0,
        0.0,
        0.0,
        1.0,
        0.0,
        0.0,
        0.0,
        0.0,
        1.0,
        0.0,
        -4.264465808868408,
        -5.687784194946289,
        -0.15560400485992432,
        1.0
      ],
      "name": "Tapon_1"
    },
    {
      "mesh": 2,
      "name": "Object_8"
    },
    {
      "children": [
        10
      ],
      "matrix": [
        1.0,
        0.0,
        0.0,
        0.0,
        0.0,
        0.0,
        1.0,
        0.0,
        0.0,
        -1.0,
        0.0,
        0.0,
        0.5133671760559082,
        5.717996120452881,
        4.38594913482666,
        1.0
      ],
      "name": "Etiqueta_3"
    },
    {
      "mesh": 3,
      "name": "Object_10"
    },
    {
      "children": [
        12
      ],
      "matrix": [
        8.429369480200677e-08,
        -0.9999999999999966,
        0.0,
        0.0,
        0.9999999999999966,
        8.429369480200677e-08,
        0.0,
        0.0,
        0.0,
        0.0,
        1.0,
        0.0,
        -8.038424491882324,
        8.278030395507813,
        0.0,
        1.0
      ],
      "name": "Glass.003_4"
    },
    {
      "mesh": 4,
      "name": "Object_12"
    }
  ],
  "samplers": [
    {
      "magFilter": 9729,
      "minFilter": 9987,
      "wrapS": 10497,
      "wrapT": 10497
    }
  ],
  "scene": 0,
  "scenes": [
    {
      "name": "Sketchfab_Scene",
      "nodes": [
        0
      ]
    }
  ],
  "textures": [
    {
      "sampler": 0,
      "source": 0
    },
    {
      "sampler": 0,
      "source": 1
    },
    {
      "sampler": 0,
      "source": 2
    }
  ]
}
